<?xml version="1.0" encoding="utf-8"?>
<!-- Generator: Adobe Illustrator 18.0.0, SVG Export Plug-In . SVG Version: 6.00 Build 0)  -->
<!DOCTYPE svg PUBLIC "-//W3C//DTD SVG 1.1//EN" "http://www.w3.org/Graphics/SVG/1.1/DTD/svg11.dtd">
<svg version="1.1" id="Layer_2" xmlns="http://www.w3.org/2000/svg" xmlns:xlink="http://www.w3.org/1999/xlink" x="0px" y="0px"
	 viewBox="0 0 925 184" enable-background="new 0 0 925 184" xml:space="preserve">
<g>
	<path fill="#DC1A24" d="M300.8,71c1.2,1.6,1.8,3.6,1.8,6c0,3.3-1.1,5.9-3.4,7.7c-2.3,1.8-5.5,2.8-9.6,2.8h-16.7V49H289
		c4,0,7.1,0.9,9.3,2.7c2.2,1.8,3.3,4.2,3.3,7.4c0,2.1-0.5,3.8-1.6,5.3c-1.1,1.5-2.6,2.6-4.5,3.3C297.8,68.3,299.5,69.4,300.8,71z
		 M278.4,65.7h9.7c5.4,0,8.1-2.1,8.1-6.2c0-4-2.7-6-8.1-6h-9.7V65.7z M295.2,81.5c1.3-1,1.9-2.6,1.9-4.8c0-2.2-0.7-3.8-2-4.9
		c-1.3-1.1-3.4-1.6-6.1-1.6h-10.6V83H289C291.8,83,293.9,82.5,295.2,81.5z"/>
	<path fill="#DC1A24" d="M316.5,87.5V49h25v4.5H322v12.1h18.4v4.5H322V83h19.5v4.5H316.5z"/>
	<path fill="#DC1A24" d="M358.8,86.7c-2.5-0.8-4.6-2-6.4-3.6l2-4.1c1.9,1.5,3.8,2.6,5.8,3.3c2,0.7,4.3,1,6.8,1
		c2.9,0,5.1-0.5,6.7-1.6c1.6-1.1,2.4-2.6,2.4-4.6c0-1.7-0.7-2.9-2.2-3.8c-1.5-0.8-3.8-1.6-7-2.4c-3.1-0.6-5.6-1.4-7.5-2.2
		c-1.9-0.8-3.5-2-4.6-3.4c-1.1-1.4-1.7-3.3-1.7-5.5s0.6-4.2,1.8-5.9c1.2-1.7,2.9-3,5.1-4c2.2-1,4.7-1.4,7.5-1.4
		c2.7,0,5.2,0.4,7.6,1.2c2.4,0.8,4.3,2,5.9,3.5l-2,4.1c-1.8-1.5-3.6-2.6-5.5-3.3c-1.9-0.7-3.9-1.1-6-1.1c-2.8,0-5,0.6-6.5,1.8
		c-1.6,1.2-2.4,2.8-2.4,4.8c0,1.7,0.7,3,2.1,3.9c1.4,0.9,3.6,1.7,6.7,2.4c3.2,0.7,5.8,1.5,7.8,2.3c2,0.8,3.6,1.9,4.8,3.2
		c1.2,1.4,1.8,3.1,1.8,5.3c0,2.2-0.6,4.2-1.8,5.8c-1.2,1.7-2.9,2.9-5.1,3.9s-4.8,1.4-7.8,1.4S361.3,87.5,358.8,86.7z"/>
	<path fill="#DC1A24" d="M403.5,87.5V53.6h-13V49h31.7v4.7h-13v33.9H403.5z"/>
	<path fill="#DC1A24" d="M433.8,49h16c4,0,7.2,1,9.4,2.9c2.3,2,3.4,4.6,3.4,8c0,3.4-1.1,6.1-3.4,8c-2.3,2-5.4,2.9-9.4,2.9h-10.4
		v16.6h-5.6V49z M449.2,66.5c2.7,0,4.7-0.6,6-1.7s2-2.7,2-4.9c0-2.1-0.7-3.7-2-4.8s-3.4-1.7-6-1.7h-9.8v13H449.2z"/>
	<path fill="#DC1A24" d="M475.9,87.5V49h5.6v33.9h18.7v4.7H475.9z"/>
	<path fill="#DC1A24" d="M541.1,87.5L537,78h-19.5l-4.1,9.5h-5.7L524.9,49h4.7l17.2,38.5H541.1z M519.4,73.5h15.7l-7.8-18.3
		L519.4,73.5z"/>
	<path fill="#DC1A24" d="M584.6,49h5.2v38.5h-4.3l-22.1-29.1v29.1h-5.2V49h4.2l22.1,29.2V49z"/>
	<path fill="#DC1A24" d="M614.5,87.5V53.6h-13V49h31.7v4.7h-13v33.9H614.5z"/>
</g>
<g>
	<path fill="#4C4C4C" d="M663.8,29.4c1.5,0.9,2.7,2,3.5,3.5s1.3,3.1,1.3,4.9c0,1.8-0.4,3.5-1.3,5c-0.9,1.5-2,2.7-3.5,3.5
		c-1.5,0.9-3.2,1.3-5,1.3s-3.5-0.4-5-1.3c-1.5-0.9-2.7-2-3.5-3.5c-0.9-1.5-1.3-3.1-1.3-5c0-1.8,0.4-3.5,1.3-5c0.9-1.5,2-2.7,3.5-3.5
		c1.5-0.9,3.1-1.3,5-1.3S662.3,28.5,663.8,29.4z M663.1,45.3c1.3-0.8,2.3-1.8,3-3.1s1.1-2.8,1.1-4.4c0-1.6-0.4-3-1.1-4.3
		c-0.7-1.3-1.8-2.3-3-3.1s-2.7-1.1-4.3-1.1c-1.6,0-3,0.4-4.3,1.1c-1.3,0.8-2.3,1.8-3.1,3.1c-0.7,1.3-1.1,2.7-1.1,4.3
		c0,1.6,0.4,3.1,1.1,4.4c0.7,1.3,1.8,2.3,3.1,3.1c1.3,0.8,2.7,1.1,4.3,1.1C660.4,46.4,661.8,46.1,663.1,45.3z M662.1,40.1l2.1,3.6
		H662l-2.2-3.7c-0.2-0.3-0.5-0.6-0.7-0.7c-0.3-0.1-0.6-0.2-1-0.2h-1.4v4.6h-2V32.1h4.8c1.3,0,2.3,0.3,3,0.9c0.7,0.6,1,1.5,1,2.5
		c0,0.9-0.3,1.6-0.8,2.2c-0.5,0.6-1.2,1-2.2,1.1C661.2,39,661.7,39.4,662.1,40.1z M661,37c0.4-0.3,0.5-0.8,0.5-1.4
		c0-0.7-0.2-1.2-0.5-1.5c-0.4-0.3-0.9-0.4-1.7-0.4h-2.6v3.7h2.6C660.1,37.4,660.6,37.3,661,37z"/>
</g>
<g>
	<linearGradient id="SVGID_1_" gradientUnits="userSpaceOnUse" x1="157.3791" y1="158.562" x2="78.2685" y2="21.5385">
		<stop  offset="0" style="stop-color:#AE141C"/>
		<stop  offset="1" style="stop-color:#FA1C27"/>
	</linearGradient>
	<path fill="url(#SVGID_1_)" d="M23.1,72.1c0.4-0.7,1-1.3,1.7-1.7l0-0.1l26.2-14.3l8.4,4.5L34.9,73.9l80,42.9
		c8.7,4.5,19,4.4,27.6-0.4l26.7-14.3c0.5,2.8,1.8,5.2,3.7,7.1l-26.6,14.2c-5.6,3.1-11.8,4.6-17.9,4.6c-5.9,0-11.8-1.4-17.2-4.2
		L24.7,77.5C22.7,76.5,22,74.1,23.1,72.1z M59.4,129.3L31,113.5l-0.2-16.8c0-2.2-1.8-3.9-4-3.9c0,0,0,0-0.1,0c-2.2,0-4,1.8-3.9,4.1
		l0.2,19.1c0,1.4,0.8,2.7,2.1,3.4l30.3,16.8C55.9,133.5,57.4,131.1,59.4,129.3z M108.7,33.6c11.3-6.2,24.9-6.3,36.3-0.2l33.6,17.9
		l-51.9,28L48.7,38.6c-0.6,2.7-2,5.1-3.9,7L125,87.4c0.6,0.3,1.2,0.5,1.9,0.5c0.7,0,1.3-0.2,1.9-0.5L189,54.8
		c1.3-0.7,2.1-2.1,2.1-3.5c0-1.5-0.8-2.8-2.1-3.5l-40.1-21.4c-13.8-7.4-30.2-7.3-43.9,0.2l-32,17.5l8.5,4.4L108.7,33.6z
		 M214.8,116.2l-70.7,39.3c-12.9,6.7-20.2,7.5-31.2,3.6l-32.1-17.9c-0.5,2.8-1.8,5.2-3.7,7.1l32.2,17.9c0.2,0.1,0.4,0.2,0.6,0.3
		c5.3,1.9,10.1,2.9,14.8,2.9c7.1,0,14.1-2.2,23.1-6.9c0,0,0.1,0,0.1-0.1l70.8-39.3c1.9-1.1,2.6-3.5,1.6-5.4
		C219.2,115.8,216.7,115.1,214.8,116.2z M220.3,77.2l-19.4-12.6c-1.9-1.2-4.3-0.7-5.5,1.2c-1.2,1.9-0.7,4.3,1.2,5.5l13.7,8.9
		l-19.3,10.3c1.9,1.8,3.3,4.3,3.9,7L220,84.1c1.2-0.7,2.1-1.9,2.1-3.4C222.1,79.3,221.4,78,220.3,77.2z"/>
	<circle fill="#F91C27" cx="37" cy="37" r="5.2"/>
	<circle fill="#CF1821" cx="68" cy="139" r="5.2"/>
	<circle fill="#C3161F" cx="182" cy="100" r="5.2"/>
</g>
<g>
	<path fill="#4C4C4C" d="M275.1,112.9v-1.6h4.6c3.5,0,5.5,1.5,5.5,8.7c0,3.8-0.2,8.7-5.5,8.7h-4.6v-1.6h1.4v-14.2H275.1z
		 M278.2,127.1h1.4c2.1,0,3.7-0.5,3.7-7.1c0-6.6-1.8-7.1-3.3-7.1h-1.8V127.1z"/>
	<path fill="#4C4C4C" d="M295.7,111.3h4.7c1.7,0,3.9,1.5,3.9,4.6c0,2.1-0.9,4.2-3,4.9l3.6,7.4l-1.6,0.8l-3.9-8.1h-2v7.7h-1.7V111.3z
		 M297.5,119.4h2.5c1.5,0,2.4-1.1,2.4-3.5c0-2.3-1.1-3-2.9-3h-2.1V119.4z"/>
	<path fill="#4C4C4C" d="M317.9,112.9h-2.3v-1.6h6.4v1.6h-2.4v14.2h2.4v1.6h-6.4v-1.6h2.3V112.9z"/>
	<path fill="#4C4C4C" d="M338.3,124l3.6-13l1.8,0.4l-5.1,17.7h-0.4l-5.1-17.7l1.8-0.4L338.3,124L338.3,124z"/>
	<path fill="#4C4C4C" d="M356.9,112.9h-2.3v-1.6h6.4v1.6h-2.4v14.2h2.4v1.6h-6.4v-1.6h2.3V112.9z"/>
	<path fill="#4C4C4C" d="M372.8,111.3h2.2l5.1,14.6l0.1-0.1l-0.1-3.9v-10.7h1.7v17.3h-2.2l-5.1-14.6l-0.1,0.1l0.1,3.9v10.6h-1.7
		V111.3z"/>
	<path fill="#4C4C4C" d="M401.4,127.4c-1.1,0.9-2.6,1.5-4,1.5c-4.5,0-5.3-5.4-5.3-8.9c0-3.3,0.8-8.9,5.1-8.9c1.9,0,3.4,1.2,4.3,2.8
		l-1.5,0.9c-0.6-1.1-1.5-2.1-2.9-2.1c-2.9,0-3.1,5.3-3.1,7.4c0,6,1.7,7.2,3.5,7.2c0.7,0,1.7-0.3,2.3-0.8v-5.2h-3.2v-1.6h5V127.4z"/>
	<path fill="#4C4C4C" d="M434.9,112.9h-2.3v-1.6h6.4v1.6h-2.4v14.2h2.4v1.6h-6.4v-1.6h2.3V112.9z"/>
	<path fill="#4C4C4C" d="M450.8,111.3h2.2l5.1,14.6l0.1-0.1l-0.1-3.9v-10.7h1.7v17.3h-2.2l-5.1-14.6l-0.1,0.1l0.1,3.9v10.6h-1.7
		V111.3z"/>
	<path fill="#4C4C4C" d="M470.1,112.9v-1.6h4.6c3.5,0,5.5,1.5,5.5,8.7c0,3.8-0.2,8.7-5.5,8.7h-4.6v-1.6h1.4v-14.2H470.1z
		 M473.2,127.1h1.4c2.1,0,3.7-0.5,3.7-7.1c0-6.6-1.8-7.1-3.3-7.1h-1.8V127.1z"/>
	<path fill="#4C4C4C" d="M491.8,111.3V124c0,1.7,0.3,3.3,2.5,3.3c2.2,0,2.5-1.6,2.5-3.3v-12.6h1.7v13.1c0,2.7-1.7,4.4-4.3,4.4
		c-2.6,0-4.2-1.8-4.2-4.4v-13.2H491.8z"/>
	<path fill="#4C4C4C" d="M516.3,115.3c-0.3-1.3-0.9-2.5-2.4-2.5c-1.6,0-2.3,1.3-2.3,2.8c0,1.4,0.3,1.8,3,3.5c2.1,1.3,3.6,2.3,3.6,5
		c0,2.7-1.5,4.9-4.4,4.9c-3.1,0-4.2-2-4.4-4.8l1.7-0.2c0.2,1.9,0.6,3.4,2.8,3.4c1.5,0,2.6-1,2.6-3.1c0-2.3-1.5-3.1-3.3-4.1
		c-2-1.2-3.3-2-3.3-4.5c0-2.3,1.6-4.4,4-4.4c2.4,0,3.6,1.7,4.1,3.9L516.3,115.3z"/>
	<path fill="#4C4C4C" d="M532.5,112.9h-3.7v-1.6h9.2v1.6h-3.7v15.8h-1.7V112.9z"/>
	<path fill="#4C4C4C" d="M549.2,111.3h4.7c1.7,0,3.9,1.5,3.9,4.6c0,2.1-0.9,4.2-3,4.9l3.6,7.4l-1.6,0.8l-3.9-8.1h-2v7.7h-1.7V111.3z
		 M551,119.4h2.5c1.5,0,2.4-1.1,2.4-3.5c0-2.3-1.1-3-2.9-3H551V119.4z"/>
	<path fill="#4C4C4C" d="M571.4,112.9h-2.3v-1.6h6.4v1.6h-2.4v14.2h2.4v1.6h-6.4v-1.6h2.3V112.9z"/>
	<path fill="#4C4C4C" d="M589.4,123.3l-1.4,5.7l-1.7-0.5l4.4-17.2h2.1l4.4,17.2l-1.7,0.5l-1.4-5.7H589.4z M591.8,113.7L591.8,113.7
		l-2,8.1h3.9L591.8,113.7z"/>
	<path fill="#4C4C4C" d="M607.9,111.3h1.7v15.8h7.1v1.6h-8.9V111.3z"/>
	<path fill="#4C4C4C" d="M649.5,112.9h-3.7v-1.6h9.2v1.6h-3.7v15.8h-1.7V112.9z"/>
	<path fill="#4C4C4C" d="M666.2,111.3h4.7c1.7,0,3.9,1.5,3.9,4.6c0,2.1-0.9,4.2-3,4.9l3.6,7.4l-1.6,0.8l-3.9-8.1h-2v7.7h-1.7V111.3z
		 M667.9,119.4h2.5c1.5,0,2.4-1.1,2.4-3.5c0-2.3-1.1-3-2.9-3h-2.1V119.4z"/>
	<path fill="#4C4C4C" d="M686.9,123.3l-1.4,5.7l-1.7-0.5l4.4-17.2h2.1l4.4,17.2L693,129l-1.4-5.7H686.9z M689.3,113.7L689.3,113.7
		l-2,8.1h3.9L689.3,113.7z"/>
	<path fill="#4C4C4C" d="M704.3,111.3h2.2l5.1,14.6l0.1-0.1l-0.1-3.9v-10.7h1.7v17.3h-2.2l-5.1-14.6l-0.1,0.1l0.1,3.9v10.6h-1.7
		V111.3z"/>
	<path fill="#4C4C4C" d="M730.8,115.3c-0.3-1.3-0.9-2.5-2.4-2.5c-1.6,0-2.3,1.3-2.3,2.8c0,1.4,0.3,1.8,3,3.5c2.1,1.3,3.6,2.3,3.6,5
		c0,2.7-1.5,4.9-4.4,4.9c-3.1,0-4.2-2-4.4-4.8l1.7-0.2c0.2,1.9,0.6,3.4,2.8,3.4c1.5,0,2.6-1,2.6-3.1c0-2.3-1.5-3.1-3.3-4.1
		c-2-1.2-3.3-2-3.3-4.5c0-2.3,1.6-4.4,4-4.4c2.4,0,3.6,1.7,4.1,3.9L730.8,115.3z"/>
	<path fill="#4C4C4C" d="M744.6,111.3h8.5v1.6h-6.8v5.7h5.7v1.6h-5.7v8.5h-1.7V111.3z"/>
	<path fill="#4C4C4C" d="M772.1,120c0,2.2,0.1,8.9-4.8,8.9c-4.9,0-4.8-6.7-4.8-8.9c0-2.9,0.2-8.9,4.8-8.9
		C772.2,111.1,772.1,117.7,772.1,120z M764.3,120c0,4.7,0.5,7.3,3,7.3c3,0,3-4.3,3-7.3c0-3.3,0.1-7.3-3-7.3
		C764.2,112.7,764.3,117.5,764.3,120z"/>
	<path fill="#4C4C4C" d="M783.2,111.3h4.7c1.7,0,3.9,1.5,3.9,4.6c0,2.1-0.9,4.2-3,4.9l3.6,7.4l-1.6,0.8l-3.9-8.1h-2v7.7h-1.7V111.3z
		 M784.9,119.4h2.5c1.5,0,2.4-1.1,2.4-3.5c0-2.3-1.1-3-2.9-3h-2.1V119.4z"/>
	<path fill="#4C4C4C" d="M808.8,111.3h2.2l0.5,17.3h-1.8l-0.3-14.5h-0.1l-3,8.7l-3-8.7h-0.1l-0.3,14.5h-1.8l0.5-17.3h2.2l2.5,7.4
		L808.8,111.3z"/>
	<path fill="#4C4C4C" d="M823.4,123.3l-1.4,5.7l-1.7-0.5l4.4-17.2h2.1l4.4,17.2l-1.7,0.5l-1.4-5.7H823.4z M825.8,113.7L825.8,113.7
		l-2,8.1h3.9L825.8,113.7z"/>
	<path fill="#4C4C4C" d="M844.5,112.9h-3.7v-1.6h9.2v1.6h-3.7v15.8h-1.7V112.9z"/>
	<path fill="#4C4C4C" d="M863.9,112.9h-2.3v-1.6h6.4v1.6h-2.4v14.2h2.4v1.6h-6.4v-1.6h2.3V112.9z"/>
	<path fill="#4C4C4C" d="M889.1,120c0,2.2,0.1,8.9-4.8,8.9c-4.9,0-4.8-6.7-4.8-8.9c0-2.9,0.2-8.9,4.8-8.9
		C889.2,111.1,889.1,117.7,889.1,120z M881.3,120c0,4.7,0.5,7.3,3,7.3c3,0,3-4.3,3-7.3c0-3.3,0.1-7.3-3-7.3
		C881.2,112.7,881.3,117.5,881.3,120z"/>
	<path fill="#4C4C4C" d="M899.3,111.3h2.2l5.1,14.6l0.1-0.1l-0.1-3.9v-10.7h1.7v17.3h-2.2l-5.1-14.6l-0.1,0.1l0.1,3.9v10.6h-1.7
		V111.3z"/>
</g>
</svg>
